<mxfile host="app.diagrams.net" agent="Mozilla/5.0 (Windows NT 10.0; Win64; x64) AppleWebKit/537.36 (KHTML, like Gecko) Chrome/131.0.0.0 Safari/537.36 Edg/131.0.0.0" version="25.0.3">
  <diagram name="Page-1" id="KhTNKOgOb1-F2TkhkK70">
    <mxGraphModel dx="786" dy="511" grid="1" gridSize="10" guides="1" tooltips="1" connect="1" arrows="1" fold="1" page="1" pageScale="1" pageWidth="850" pageHeight="1100" math="0" shadow="0">
      <root>
        <mxCell id="0" />
        <mxCell id="1" parent="0" />
        <mxCell id="RY0MBbtVie5SZPWcOM87-3" value="" style="edgeStyle=orthogonalEdgeStyle;rounded=0;orthogonalLoop=1;jettySize=auto;html=1;" edge="1" parent="1" source="RY0MBbtVie5SZPWcOM87-1" target="RY0MBbtVie5SZPWcOM87-2">
          <mxGeometry relative="1" as="geometry" />
        </mxCell>
        <mxCell id="RY0MBbtVie5SZPWcOM87-1" value="Inicio" style="ellipse;whiteSpace=wrap;html=1;aspect=fixed;" vertex="1" parent="1">
          <mxGeometry x="310" width="170" height="170" as="geometry" />
        </mxCell>
        <mxCell id="RY0MBbtVie5SZPWcOM87-5" value="" style="edgeStyle=orthogonalEdgeStyle;rounded=0;orthogonalLoop=1;jettySize=auto;html=1;" edge="1" parent="1" source="RY0MBbtVie5SZPWcOM87-2" target="RY0MBbtVie5SZPWcOM87-4">
          <mxGeometry relative="1" as="geometry" />
        </mxCell>
        <mxCell id="RY0MBbtVie5SZPWcOM87-2" value="Mostrar mensaje:&quot;Por favor, ingrese el radio del circulo: &quot;" style="shape=parallelogram;perimeter=parallelogramPerimeter;whiteSpace=wrap;html=1;fixedSize=1;" vertex="1" parent="1">
          <mxGeometry x="277.5" y="220" width="235" height="120" as="geometry" />
        </mxCell>
        <mxCell id="RY0MBbtVie5SZPWcOM87-7" value="" style="edgeStyle=orthogonalEdgeStyle;rounded=0;orthogonalLoop=1;jettySize=auto;html=1;" edge="1" parent="1" source="RY0MBbtVie5SZPWcOM87-4" target="RY0MBbtVie5SZPWcOM87-6">
          <mxGeometry relative="1" as="geometry" />
        </mxCell>
        <mxCell id="RY0MBbtVie5SZPWcOM87-4" value="&lt;div&gt;Definir y asignar a la varable area el resultado de area = Ï€ * radio2&lt;/div&gt;&lt;div&gt;&lt;br&gt;&lt;/div&gt;" style="rounded=1;whiteSpace=wrap;html=1;" vertex="1" parent="1">
          <mxGeometry x="232.5" y="380" width="325" height="110" as="geometry" />
        </mxCell>
        <mxCell id="RY0MBbtVie5SZPWcOM87-9" value="" style="edgeStyle=orthogonalEdgeStyle;rounded=0;orthogonalLoop=1;jettySize=auto;html=1;" edge="1" parent="1" source="RY0MBbtVie5SZPWcOM87-6" target="RY0MBbtVie5SZPWcOM87-8">
          <mxGeometry relative="1" as="geometry" />
        </mxCell>
        <mxCell id="RY0MBbtVie5SZPWcOM87-6" value="Mostrar mensaje: &quot;El area del circulo con radio&quot;, radio, &quot;es:&quot;, area" style="shape=parallelogram;perimeter=parallelogramPerimeter;whiteSpace=wrap;html=1;fixedSize=1;rounded=1;" vertex="1" parent="1">
          <mxGeometry x="240" y="540" width="310" height="130" as="geometry" />
        </mxCell>
        <mxCell id="RY0MBbtVie5SZPWcOM87-8" value="Fin" style="ellipse;whiteSpace=wrap;html=1;rounded=1;" vertex="1" parent="1">
          <mxGeometry x="317.5" y="710" width="155" height="155" as="geometry" />
        </mxCell>
      </root>
    </mxGraphModel>
  </diagram>
</mxfile>
